#!OML:ASF X:\für Bonn\!DataBase\2005_08_10_Bjorn_Final\c3d\bjorn.ASF
:FULLY-SPECIFIED
:DEGREES
198
root -11.1298 18.975 2.2288 -370.743 411.341 -382.098
lowerback -1.62886 -3.81464 11.2555
upperback 8.09708 -5.9862 4.16063
thorax 8.93489 -2.20682 -2.29229
lowerneck -7.01215 4.44876 1.56648
upperneck 1.82827 5.99841 -4.77717
head 1.99518 2.88986 -1.5509
rclavicle -1.0635e-014 -3.93594e-014
rhumerus -59.1861 3.21575 -87.9763
rradius 75.3893
rwrist -5.90436
rhand -32.0906 26.9143
rfingers 7.12502
rthumb -5.33621 -2.99853
lclavicle -1.0635e-014 -3.93594e-014
lhumerus -26.2663 -39.7193 96.6241
lradius 99.795
lwrist -1.80494
lhand -54.0664 -29.1031
lfingers 7.12502
lthumb -26.4868 -0.934282
rfemur -31.0117 -5.90546 20.6047
rtibia 28.3643
rfoot 5.32982 16.6277
rtoes -26.2088
lfemur 5.82956 -3.34967 -19.0327
ltibia 41.674
lfoot 5.33521 2.10312
ltoes -2.49067
199
root -10.9232 18.9171 2.41974 -371.774 411.947 -382.906
lowerback -1.60868 -3.85705 11.6125
upperback 8.20765 -6.07589 4.35528
thorax 9.03522 -2.21878 -2.28113
lowerneck -7.10096 4.51308 1.55686
upperneck 1.78424 6.09558 -5.03305
head 2.01067 2.93189 -1.62621
rclavicle 1.77912e-014 -5.18828e-014
rhumerus -58.6043 3.04534 -87.8803
rradius 76.6581
rwrist -5.67803
rhand -32.3636 26.1683
rfingers 7.12502
rthumb -5.59979 -3.73776
lclavicle 1.77912e-014 -5.18828e-014
lhumerus -27.1991 -39.9869 97.5172
lradius 98.9724
lwrist -2.18164
lhand -54.1374 -29.8152
lfingers 7.12502
lthumb -26.5548 -1.65668
rfemur -30.2271 -5.92418 20.8956
rtibia 28.5798
rfoot 4.29059 16.9969
rtoes -27.0361
lfemur 5.48219 -3.58421 -18.662
ltibia 44.3177
lfoot 4.09872 3.7688
ltoes -4.28511
200
root -10.7178 18.8501 2.60916 -372.739 412.484 -383.549
lowerback -1.52285 -3.85756 11.8383
upperback 8.36876 -6.09404 4.5318
thorax 9.1702 -2.20095 -2.20991
lowerneck -7.31959 4.54841 1.45708
upperneck 1.74671 6.15894 -5.20453
head 2.04357 2.95661 -1.65746
rclavicle -1.72644e-013 1.32192e-013
rhumerus -57.9033 2.94824 -87.8293
rradius 77.9295
rwrist -5.54358
rhand -32.4025 25.8802
rfingers 7.12502
rthumb -5.63736 -4.02477
lclavicle -1.72644e-013 1.32192e-013
lhumerus -28.1199 -40.0925 98.4723
lradius 98.085
lwrist -2.64801
lhand -54.1382 -30.4471
lfingers 7.12502
lthumb -26.5556 -2.28867
rfemur -29.471 -5.78067 21.0307
rtibia 29.2374
rfoot 2.68667 17.6376
rtoes -28.3885
lfemur 5.16186 -3.84771 -18.4592
ltibia 46.9906
lfoot 2.96711 5.36999
ltoes -4.66291
201
root -10.5153 18.7735 2.79744 -373.798 412.957 -384.206
lowerback -1.29373 -3.85317 12.0099
upperback 8.53054 -6.07785 4.73896
thorax 9.23278 -2.17555 -2.06366
lowerneck -7.30303 4.57066 1.32794
upperneck 1.43517 6.1983 -5.41696
head 1.94356 2.97668 -1.70408
rclavicle 2.34069e-014 -2.78299e-015
rhumerus -57.1974 2.99949 -87.8375
rradius 79.2231
rwrist -5.52104
rhand -32.5263 25.7627
rfingers 7.12502
rthumb -5.75685 -4.13908
lclavicle 2.34069e-014 -2.78299e-015
lhumerus -29.1567 -39.9801 99.5976
lradius 97.0762
lwrist -3.16787
lhand -54.1088 -31.2868
lfingers 7.12502
lthumb -26.5275 -3.12414
rfemur -28.6782 -5.53765 21.1185
rtibia 30.2549
rfoot 0.946517 18.0339
rtoes -28.4948
lfemur 4.8574 -4.09189 -18.2666
ltibia 49.7151
lfoot 1.84336 6.66606
ltoes -4.6156
202
root -10.3157 18.6901 2.98525 -374.866 413.393 -384.824
lowerback -0.976543 -3.82619 12.143
upperback 8.68576 -6.01045 4.93302
thorax 9.24285 -2.13073 -1.90102
lowerneck -7.12626 4.57127 1.24223
upperneck 0.926492 6.19776 -5.70599
head 1.7545 2.9827 -1.78927
rclavicle -1.99779e-014 -3.19049e-014
rhumerus -56.4618 3.1077 -87.9536
rradius 80.4718
rwrist -5.61583
rhand -32.9202 25.718
rfingers 7.12502
rthumb -6.13713 -4.17315
lclavicle -1.99779e-014 -3.19049e-014
lhumerus -30.2237 -39.7485 100.743
lradius 95.9885
lwrist -3.7599
lhand -54.0368 -32.0839
lfingers 7.12502
lthumb -26.4586 -3.91083
rfemur -27.8071 -5.33256 21.1935
rtibia 31.5208
rfoot -1.29346 18.3505
rtoes -29.1689
lfemur 4.48289 -4.24014 -18.0379
ltibia 52.4761
lfoot 0.765064 7.47128
ltoes -5.15018
203
root -10.1226 18.5949 3.17044 -375.989 413.771 -385.466
lowerback -0.570698 -3.78847 12.2477
upperback 8.84372 -5.91088 5.16113
thorax 9.21304 -2.07567 -1.67893
lowerneck -6.88436 4.55011 1.00101
upperneck 0.320135 6.17004 -5.89247
head 1.51206 2.98151 -1.81726
rclavicle -5.23549e-014 -1.41634e-015
rhumerus -55.7594 3.5165 -88.0647
rradius 81.8303
rwrist -5.95497
rhand -33.2231 25.5407
rfingers 7.12502
rthumb -6.42955 -4.34167
lclavicle -5.23549e-014 -1.41634e-015
lhumerus -31.2417 -39.3784 101.857
lradius 94.8521
lwrist -4.37973
lhand -53.9602 -32.9609
lfingers 7.12502
lthumb -26.3853 -4.77682
rfemur -26.9149 -5.29556 21.3949
rtibia 32.9586
rfoot -4.08546 18.6352
rtoes -31.4434
lfemur 4.01241 -4.16528 -17.6332
ltibia 55.2703
lfoot -0.249664 7.43391
ltoes -7.50486
204
root -9.93195 18.4902 3.35372 -377.19 414.038 -386.154
lowerback -0.0710797 -3.69869 12.4133
upperback 8.98405 -5.72251 5.38679
thorax 9.11301 -1.97641 -1.48129
lowerneck -6.63217 4.49825 0.675146
upperneck -0.224204 6.1033 -5.9514
head 1.27996 2.96362 -1.791
rclavicle -1.04238e-014 -3.69243e-014
rhumerus -55.144 4.06992 -88.2167
rradius 83.2585
rwrist -6.47151
rhand -33.1292 25.2596
rfingers 7.12502
rthumb -6.33899 -4.62553
lclavicle -1.04238e-014 -3.69243e-014
lhumerus -32.3081 -38.9603 102.999
lradius 93.8708
lwrist -4.89903
lhand -53.7806 -33.4179
lfingers 7.12502
lthumb -26.2133 -5.20813
rfemur -26.0551 -5.18673 21.6587
rtibia 34.5126
rfoot -7.02088 18.6098
rtoes -33.7973
lfemur 3.46346 -3.94692 -17.1073
ltibia 58.0676
lfoot -1.29025 6.74008
ltoes -11.0579
205
root -9.74435 18.3781 3.53157 -378.463 414.248 -386.842
lowerback 0.52402 -3.57554 12.6164
upperback 9.16602 -5.47121 5.57869
thorax 9.00499 -1.84016 -1.33248
lowerneck -6.61809 4.42118 0.273049
upperneck -0.523794 6.01533 -5.79987
head 1.1573 2.93016 -1.6785
rclavicle 5.63803e-014 -5.36719e-014
rhumerus -54.426 4.58434 -88.4479
rradius 84.6592
rwrist -6.85528
rhand -32.8505 25.1954
rfingers 7.12502
rthumb -6.06985 -4.69764
lclavicle 5.63803e-014 -5.36719e-014
lhumerus -33.2593 -38.5347 104.061
lradius 93.0105
lwrist -5.35971
lhand -53.5948 -33.0036
lfingers 7.12502
lthumb -26.0354 -4.76756
rfemur -25.1762 -4.97242 21.9058
rtibia 36.1191
rfoot -9.81572 18.4563
rtoes -35.1722
lfemur 2.85987 -3.6613 -16.5497
ltibia 60.8403
lfoot -2.22693 5.74289
ltoes -13.9039
206
root -9.56098 18.2599 3.7057 -379.677 414.416 -387.477
lowerback 1.14415 -3.41961 12.8036
upperback 9.3414 -5.16519 5.74524
thorax 8.87958 -1.67803 -1.20178
lowerneck -6.89805 4.31183 0.123037
upperneck -0.414551 5.89598 -5.92164
head 1.23653 2.8628 -1.68951
rclavicle 1.74434e-014 -3.97569e-015
rhumerus -53.6497 5.11051 -88.724
rradius 86.0048
rwrist -7.10025
rhand -32.7052 25.4843
rfingers 7.12502
rthumb -5.92956 -4.41271
lclavicle 1.74434e-014 -3.97569e-015
lhumerus -34.2401 -37.9992 105.068
lradius 92.0027
lwrist -5.63554
lhand -53.5181 -33.2218
lfingers 7.12502
lthumb -25.9619 -4.97501
rfemur -24.3049 -4.7334 22.1342
rtibia 37.7128
rfoot -12.4275 18.4401
rtoes -35.771
lfemur 2.10907 -3.32145 -15.9846
ltibia 63.5871
lfoot -3.06225 4.8199
ltoes -13.6533
207
root -9.38347 18.1396 3.8739 -380.802 414.581 -388.03
lowerback 1.81084 -3.24963 12.9439
upperback 9.49947 -4.82415 5.8959
thorax 8.71207 -1.50419 -1.06363
lowerneck -7.08607 4.17709 -0.0436063
upperneck -0.429701 5.73789 -6.03704
head 1.25804 2.78057 -1.70008
rclavicle -4.25399e-014 9.26337e-014
rhumerus -52.7911 5.69984 -88.9958
rradius 87.3511
rwrist -7.1634
rhand -32.7605 25.9967
rfingers 7.12502
rthumb -5.98299 -3.89882
lclavicle -4.25399e-014 9.26337e-014
lhumerus -35.3067 -37.2993 106.012
lradius 90.8505
lwrist -6.04956
lhand -53.6441 -33.9183
lfingers 7.12502
lthumb -26.0826 -5.68918
rfemur -23.4712 -4.67037 22.3296
rtibia 39.2893
rfoot -14.8338 18.6591
rtoes -36.1853
lfemur 1.18245 -2.89684 -15.4218
ltibia 66.3167
lfoot -3.841 3.92779
ltoes -11.8563
208
root -9.21101 18.0198 4.03766 -381.825 414.766 -388.548
lowerback 2.40619 -3.03786 13.118
upperback 9.64722 -4.43608 5.98465
thorax 8.57389 -1.30051 -1.0168
lowerneck -7.22825 4.01244 -0.169416
upperneck -0.551319 5.52761 -6.03212
head 1.23263 2.67762 -1.6827
rclavicle 3.53837e-014 -6.14245e-014
rhumerus -51.7159 6.17706 -89.3326
rradius 88.7464
rwrist -7.01632
rhand -32.8496 26.0319
rfingers 7.12502
rthumb -6.06903 -3.8612
lclavicle 3.53837e-014 -6.14245e-014
lhumerus -36.3029 -36.6564 106.788
lradius 89.7637
lwrist -6.59885
lhand -53.7522 -33.6887
lfingers 7.12502
lthumb -26.1861 -5.47487
rfemur -22.7087 -4.61695 22.497
rtibia 40.8302
rfoot -17.0982 18.9026
rtoes -36.4516
lfemur 0.0182625 -2.38046 -14.8198
ltibia 69.0692
lfoot -4.60195 2.95443
ltoes -9.86376
209
root -9.04477 17.9059 4.19679 -382.62 415.018 -388.918
lowerback 2.93254 -2.81041 13.2109
upperback 9.75888 -4.03296 6.01974
thorax 8.4364 -1.09518 -0.992547
lowerneck -7.33225 3.85928 -0.461637
upperneck -0.726235 5.33466 -5.69579
head 1.16648 2.59063 -1.53098
rclavicle -5.25785e-014 6.57977e-014
rhumerus -50.5903 6.58957 -89.6537
rradius 90.0643
rwrist -6.57389
rhand -32.8423 25.8533
rfingers 7.12502
rthumb -6.06194 -4.03993
lclavicle -5.25785e-014 6.57977e-014
lhumerus -37.2536 -35.9566 107.446
lradius 88.7924
lwrist -7.24811
lhand -53.7389 -32.7256
lfingers 7.12502
lthumb -26.1734 -4.50991
rfemur -22.0649 -4.576 22.5654
rtibia 42.3349
rfoot -19.2632 18.8945
rtoes -37.2284
lfemur -1.44303 -1.78009 -14.2538
ltibia 71.8298
lfoot -5.36684 1.9494
ltoes -7.92765
